#!OML:ASF E:/inclinewalkrobotboard/Project1/Captureday1/Session1/subject1.ASF
:FULLY-SPECIFIED
:DEGREES
318
root 0 0 0 -2.104934855572327 -3.7223923143385704 0.5090526962291624
lowerback 7.57241958317014 1.6149478450942452 -2.534180359066116
upperback 1.9279498847152694 2.003102010400856 -0.07727073910693572
thorax -2.277967839097524 1.0540335531390972 1.222856692444783
lowerneck -9.176301399085196 -5.546836892664455 -6.485800625808207
upperneck 30.8818532959546 -8.672606240739992 6.180234300118938
head 11.560159866017974 -3.9580728602570012 2.0611597797246013
rclavicle -1.9269708305897237E-15 1.6009910381473257E-15
rhumerus -9.531451598884477 3.349530698372572 -79.9009817625454
rradius 50.513224745344495
rwrist -21.15130214220712
rhand -41.9669848565103 15.721309458124352
rfingers 7.125019999999949
rthumb -14.82110273443267 -13.701000338767038
lclavicle -6.087105937073999E-15 1.2941765406470246E-15
lhumerus -31.028722349232225 11.93491194949968 77.00296029473714
lradius 24.737336859020495
lwrist -4.896993109418666
lhand -24.385231460761396 21.843915447633837
lfingers 7.125019999999957
lthumb 2.1082985779191237 51.78421855240664
rfemur 1.796037503540107 8.3931796684763 34.55023043978741
rtibia 27.734633461092884
rfoot -20.110054631457633 -9.060909217556148
rtoes 3.5032079997602383
lfemur -31.75298718143452 1.0300106996952394 -13.466922120258392
ltibia 39.73022512995733
lfoot -4.492779662395298 -4.223367948397582
ltoes -4.724083044005843
319
root 0 0 0 -2.106125398933571 -3.725078462643778 0.5049935370309895
lowerback 7.593094308748731 1.6092382542074464 -2.5348127970972985
upperback 1.9114348308365678 1.9955238463067932 -0.07200714020312049
thorax -2.308639596951384 1.0495696386419413 1.2293975178654466
lowerneck -9.232845562994246 -5.543503986369342 -6.4689009894001686
upperneck 30.904992729395445 -8.664331137205547 6.16643558418272
head 11.570641543013034 -3.9534716301050254 2.057469749795474
rclavicle -1.7257824327040544E-15 1.5494252526379456E-15
rhumerus -9.217552747201541 2.930420644084081 -79.84290063109646
rradius 50.00402933623501
rwrist -21.013192158550684
rhand -42.007383749098125 15.878126001611719
rfingers 7.125019999999948
rthumb -14.856179913836566 -13.540068309003908
lclavicle -5.962901756262996E-15 1.223180806673808E-15
lhumerus -31.018920136409484 11.953800770532505 77.00648320847777
lradius 24.743736419557404
lwrist -4.8882061663134815
lhand -24.40533733408629 21.8298261184584
lfingers 7.125019999999957
lthumb 2.089076064909826 51.77068954618251
rfemur 0.5605513396725157 8.312559465232496 34.41284084972243
rtibia 28.872230285097153
rfoot -19.40091823247628 -9.10662398273056
rtoes 3.5784982587425134
lfemur -31.2407661383915 1.0114510443996743 -13.85333914516426
ltibia 39.60661497964211
lfoot -4.057319319785996 -4.842825602115132
ltoes -4.2196181913505475
320
root 0 0 0 -2.1117571022255497 -3.7359707464308594 0.5008717711184454
lowerback 7.606840637052828 1.6017897848239557 -2.5343111843969686
upperback 1.8943336725265674 1.985882034249098 -0.06605101722746953
thorax -2.335710981292294 1.0441248349794208 1.236636828218927
lowerneck -9.282311679008906 -5.538156536369489 -6.448974200607319
upperneck 30.93863311157936 -8.655467482145315 6.1450666850001925
head 11.583120959864095 -3.948693964891525 2.0504542441234963
rclavicle -1.5752101441945562E-15 1.4996652144740896E-15
rhumerus -8.895879987358146 2.5203798364050103 -79.77426916846944
rradius 49.53342139146786
rwrist -20.884233727415115
rhand -42.036717076927175 16.015030865573934
rfingers 7.125019999999946
rthumb -14.880951083457795 -13.399511080448306
lclavicle -5.867472821143218E-15 1.140344846895393E-15
lhumerus -30.978284490777057 11.94014431033396 77.0664939558041
lradius 24.766849195386822
lwrist -4.855182091629047
lhand -24.405327626277366 21.82455394397427
lfingers 7.125019999999957
lthumb 2.0890903976051884 51.76562419241034
rfemur -1.3815125669739183 8.205687049439817 34.186293364030114
rtibia 30.338715460566426
rfoot -18.476489021932395 -9.233777718725099
rtoes 3.8874156722680233
lfemur -30.50724324502267 1.1085791558164466 -14.276403672630195
ltibia 40.23127577982552
lfoot -3.692287789202987 -5.501173924745993
ltoes -3.856185191837087
321
root 0 0 0 -2.1217922948961623 -3.7553042503803664 0.4969020497183326
lowerback 7.613033694800226 1.5927173785107074 -2.5329367385401502
upperback 1.87732190151173 1.9742984757315725 -0.059571631758799204
thorax -2.358063380762655 1.0377897806076806 1.2445166936807475
lowerneck -9.322570473017459 -5.531128963380995 -6.426870305100146
upperneck 30.983165298846924 -8.646697939145177 6.116676437951352
head 11.597603010612081 -3.9440817730859354 2.0402272189730715
rclavicle -1.4676131537365066E-15 1.4475596104848791E-15
rhumerus -8.577706448063708 2.134884331960885 -79.69633128810112
rradius 49.11505704762607
rwrist -20.76940441980158
rhand -42.05182495356698 16.129668514226246
rfingers 7.125019999999945
rthumb -14.892409265032942 -13.281955981728945
lclavicle -5.798235896546889E-15 1.0417070207936247E-15
lhumerus -30.910412337768193 11.898773801538605 77.17598713466273
lradius 24.806099342389327
lwrist -4.798729686846634
lhand -24.390317006965642 21.826123591205853
lfingers 7.125019999999956
lthumb 2.1034202492903322 51.767104424089354
rfemur -4.017093228840641 8.079654936672704 33.86273155347496
rtibia 32.067208597573526
rfoot -17.325471999274562 -9.4232456177819
rtoes 4.359579019427292
lfemur -29.555315117592947 1.3102562572852747 -14.720001059632953
ltibia 41.53366183336398
lfoot -3.3998617907252537 -6.204510211391389
ltoes -3.6715400551855955
